<?xml version="1.0" standalone="no"?>
<!DOCTYPE svg PUBLIC "-//W3C//DTD SVG 20010904//EN"
 "http://www.w3.org/TR/2001/REC-SVG-20010904/DTD/svg10.dtd">
<svg version="1.0" xmlns="http://www.w3.org/2000/svg"
 width="512.000000pt" height="512.000000pt" viewBox="0 0 512.000000 512.000000"
 preserveAspectRatio="xMidYMid meet">
<metadata>
Created by potrace 1.11, written by Peter Selinger 2001-2013
</metadata>
<g transform="translate(0.000000,512.000000) scale(0.100000,-0.100000)"
fill="#000000" stroke="none">
<path d="M3022 5029 c-122 -128 -202 -188 -607 -449 -411 -265 -607 -414 -787
-597 -198 -201 -310 -358 -405 -569 -156 -342 -200 -752 -127 -1176 63 -370
253 -716 514 -935 92 -77 125 -94 209 -103 85 -10 97 -15 111 -51 17 -40 -2
-84 -42 -98 -18 -7 -119 -11 -244 -11 l-213 0 -73 -59 c-40 -33 -147 -121
-238 -198 -138 -115 -170 -147 -192 -192 l-28 -55 0 -243 0 -244 25 -24 24
-25 1554 0 c1538 0 1553 0 1575 20 31 29 34 63 30 306 -3 202 -5 222 -25 259
-28 52 -69 91 -308 289 l-199 166 -213 0 c-237 0 -277 8 -289 54 -17 70 28
106 134 106 68 0 147 34 186 81 28 33 174 266 206 329 35 68 50 129 56 220 8
106 -12 195 -63 292 -39 74 -45 82 -423 484 -135 143 -303 323 -374 399 -72
75 -121 135 -110 132 10 -4 109 -11 219 -16 338 -17 412 -51 640 -290 132
-138 164 -161 227 -161 27 0 59 5 71 11 12 6 93 81 180 167 144 144 157 160
157 192 0 19 -9 46 -20 60 -30 38 -25 83 14 140 41 59 52 112 36 171 -10 39
-64 96 -507 541 -496 496 -496 497 -480 521 27 42 58 149 64 227 10 135 -43
360 -95 400 -50 40 -76 29 -170 -71z"/>
</g>
</svg>
